<?xml version="1.0" encoding="utf-8"?>
<!-- Generator: Adobe Illustrator 16.0.0, SVG Export Plug-In . SVG Version: 6.00 Build 0)  -->
<!DOCTYPE svg PUBLIC "-//W3C//DTD SVG 1.1//EN" "http://www.w3.org/Graphics/SVG/1.1/DTD/svg11.dtd">
<svg version="1.1" id="레이어_1" xmlns="http://www.w3.org/2000/svg" xmlns:xlink="http://www.w3.org/1999/xlink" x="0px"
	 y="0px" width="100px" height="100px" viewBox="0 0 100 100" enable-background="new 0 0 100 100" xml:space="preserve">
<g>
	<g id="XMLID_1_">
		<g>
			<path fill="#FFFFFF" d="M80.504,41.066c5.079,0.108,8.732,3.653,8.711,8.452c-0.021,4.863-3.632,8.279-8.775,8.3
				c-4.432,0.043-8.884,0.043-13.315,0.043H45.791c-0.583,0-1.124,0.281-1.47,0.757l-0.67,0.929
				c-0.519,0.757-0.411,1.751,0.238,2.378l2.832,2.615c2.421,2.227,4.82,4.475,7.241,6.744c2.291,2.183,3.221,4.582,2.854,7.306
				c-0.476,3.437-2.313,5.771-5.469,6.917c-3.242,1.167-6.204,0.583-8.538-1.729c-9.489-9.359-19.561-19.345-29.612-29.655
				c-3.134-3.199-3.134-7.825-0.022-11.023c9.057-9.338,18.459-18.74,27.905-27.926c1.556-1.513,3.48-2.313,5.555-2.313
				c2.248,0,4.388,0.93,6.03,2.615c3.242,3.286,3.242,8.084,0.021,11.672c-1.513,1.686-3.134,3.242-4.95,4.971
				c-1.188,1.124-2.399,2.226-3.609,3.307l-1.643,1.47c-0.605,0.541-0.756,1.427-0.411,2.162l0.519,0.973
				c0.303,0.605,0.929,0.994,1.6,0.994l27.796-0.043C74.841,40.98,77.673,41.002,80.504,41.066z"/>
			<path fill="#FFFFFF" d="M80.568,37.479c7.025,0.13,12.277,5.317,12.234,12.083c-0.043,6.831-5.23,11.824-12.363,11.888
				c-4.432,0.021-8.884,0.043-13.315,0.043l-18.437-0.021l0.476,0.433c2.42,2.248,4.863,4.496,7.262,6.787
				c3.113,2.939,4.475,6.549,3.956,10.418c-0.67,4.777-3.372,8.171-7.803,9.792c-1.492,0.519-2.983,0.8-4.41,0.8
				c-2.94,0-5.685-1.168-7.911-3.351C30.79,76.969,20.696,66.961,10.624,56.65c-4.561-4.668-4.561-11.412-0.043-16.081
				c9.1-9.337,18.524-18.761,27.991-27.991c4.583-4.431,12.147-4.237,16.665,0.367c4.561,4.647,4.604,11.629,0.13,16.6
				c-1.6,1.794-3.286,3.394-5.145,5.188c-0.973,0.908-1.945,1.816-2.918,2.702l24.684-0.043
				C74.862,37.392,77.716,37.414,80.568,37.479z M89.215,49.518c0.021-4.798-3.632-8.343-8.711-8.452
				c-2.831-0.064-5.663-0.086-8.517-0.086l-27.796,0.043c-0.67,0-1.297-0.389-1.6-0.994l-0.519-0.973
				c-0.346-0.735-0.194-1.621,0.411-2.162l1.643-1.47c1.21-1.081,2.421-2.183,3.609-3.307c1.816-1.729,3.437-3.286,4.95-4.971
				c3.221-3.588,3.221-8.387-0.021-11.672c-1.643-1.686-3.783-2.615-6.03-2.615c-2.075,0-3.999,0.8-5.555,2.313
				c-9.446,9.186-18.848,18.588-27.905,27.926c-3.112,3.199-3.112,7.824,0.022,11.023c10.051,10.311,20.123,20.296,29.612,29.655
				c2.334,2.313,5.296,2.896,8.538,1.729c3.155-1.146,4.993-3.48,5.469-6.917c0.367-2.724-0.563-5.123-2.854-7.306
				c-2.421-2.27-4.82-4.518-7.241-6.744l-2.832-2.615c-0.648-0.627-0.757-1.621-0.238-2.378l0.67-0.929
				c0.346-0.476,0.886-0.757,1.47-0.757h21.333c4.432,0,8.884,0,13.315-0.043C85.583,57.797,89.193,54.381,89.215,49.518z"/>
		</g>
		<g>
		</g>
	</g>
</g>
</svg>
