<?xml version="1.0" encoding="utf-8"?>
<!-- Generator: Adobe Illustrator 16.0.0, SVG Export Plug-In . SVG Version: 6.00 Build 0)  -->
<!DOCTYPE svg PUBLIC "-//W3C//DTD SVG 1.1//EN" "http://www.w3.org/Graphics/SVG/1.1/DTD/svg11.dtd">
<svg version="1.1" id="레이어_1" xmlns="http://www.w3.org/2000/svg" xmlns:xlink="http://www.w3.org/1999/xlink" x="0px"
	 y="0px" width="60px" height="60px" viewBox="0 0 60 60" enable-background="new 0 0 60 60" xml:space="preserve">
<title>08</title>
<g id="XMLID_1_">
	<g>
		<path fill="#F8EAE7" d="M47.91,27.381c1.467,0,2.652,1.185,2.652,2.652c0,1.467-1.186,2.652-2.652,2.652H18.822l10.782,10.044
			c1.069,1.003,1.127,2.677,0.132,3.746c-1.002,1.077-2.677,1.135-3.754,0.133L10.278,31.972c-0.042-0.041-0.083-0.091-0.133-0.133
			c-0.995-1.068-0.937-2.751,0.133-3.745l15.704-14.635c0.05-0.042,0.091-0.091,0.141-0.133c1.111-0.961,2.785-0.837,3.746,0.265
			c0.961,1.103,0.845,2.776-0.265,3.738L18.822,27.381H47.91z"/>
	</g>
	<g>
	</g>
</g>
</svg>
