<?xml version="1.0" encoding="utf-8"?>
<!-- Generator: Adobe Illustrator 16.0.0, SVG Export Plug-In . SVG Version: 6.00 Build 0)  -->
<!DOCTYPE svg PUBLIC "-//W3C//DTD SVG 1.1//EN" "http://www.w3.org/Graphics/SVG/1.1/DTD/svg11.dtd">
<svg version="1.1" id="레이어_1" xmlns="http://www.w3.org/2000/svg" xmlns:xlink="http://www.w3.org/1999/xlink" x="0px"
	 y="0px" width="60px" height="60px" viewBox="0 0 60 60" enable-background="new 0 0 60 60" xml:space="preserve">
<g transform="translate(-413 3)">
	<path fill="#040000" d="M427.233,7.805c-2.056,0-3.632,1.708-3.632,3.763v11.595h6.125V13.93h9.232V7.805H427.233z M445.088,7.805
		v6.126h9.23v9.232h6.125V11.523c0-2.056-1.619-3.763-3.631-3.763h-11.727v0.044H445.088z M423.602,29.289v11.598
		c0,2.055,1.62,3.762,3.632,3.762h11.726v-6.125h-9.232v-9.232h-6.126V29.289z M454.318,29.289v9.232h-9.23v6.125h11.727
		c2.012,0,3.631-1.707,3.631-3.764V29.289H454.318z"/>
</g>
</svg>
