<?xml version="1.0" encoding="utf-8"?>
<!-- Generator: Adobe Illustrator 16.0.0, SVG Export Plug-In . SVG Version: 6.00 Build 0)  -->
<!DOCTYPE svg PUBLIC "-//W3C//DTD SVG 1.1//EN" "http://www.w3.org/Graphics/SVG/1.1/DTD/svg11.dtd">
<svg version="1.1" id="레이어_1" xmlns="http://www.w3.org/2000/svg" xmlns:xlink="http://www.w3.org/1999/xlink" x="0px"
	 y="0px" width="50px" height="50px" viewBox="0 0 50 50" enable-background="new 0 0 50 50" xml:space="preserve">
<g>
	<g id="XMLID_1_">
		<g>
			<path fill="#FFFFFF" d="M24.67,32.63c-1.73,2.23-4.24,3.88-6.93,4.63c-0.13,0.05-0.24-0.109-0.24-0.25
				c0-0.05,0.02-0.109,0.06-0.14c2.29-1.48,4.19-3.22,5.73-5.23c0.97-1.21,1.71-2.569,2.26-3.989c0.13-0.341,0.59-0.49,1.05-0.37
				c0.45,0.12,0.71,0.54,0.58,0.92C26.57,29.78,25.73,31.28,24.67,32.63z"/>
			<path fill="#FFFFFF" d="M11.83,25.49c0.5-0.12,0.96-0.34,1.29-0.68c0.33-0.36,0.56-0.8,0.74-1.31c0.18-0.5,0.33-1.04,0.53-1.59
				c0.2-0.56,0.46-1.09,0.74-1.6c0.56-1.02,1.19-1.99,1.75-2.93c0.58-0.95,1.04-1.89,1.34-2.91c0.31-0.99,0.48-2.06,0.56-3.12
				c0.05-0.54,0.08-1.07,0.08-1.62c0-0.56,0-1.14,0.1-1.8c0.08-0.34,0.15-0.7,0.38-1.09c0.08-0.09,0.13-0.19,0.23-0.29
				c0.1-0.09,0.2-0.19,0.3-0.26c0.13-0.08,0.26-0.15,0.38-0.2c0.13-0.02,0.26-0.07,0.38-0.09c0.13-0.03,0.23-0.03,0.36-0.03
				c0.13,0,0.23,0,0.33,0.03l0.3,0.02l0.26,0.07c0.2,0.05,0.35,0.1,0.5,0.15c0.16,0.05,0.31,0.09,0.46,0.17
				c0.36,0.14,0.74,0.34,1.09,0.55c0.36,0.22,0.69,0.49,0.97,0.83c0.28,0.34,0.5,0.68,0.68,1.06c0.18,0.37,0.31,0.75,0.38,1.14
				c0.16,0.75,0.18,1.48,0.18,2.2c-0.02,0.73-0.069,1.43-0.13,2.11c-0.12,1.36-0.27,2.69-0.12,3.93c0.07,0.62,0.2,1.21,0.46,1.79
				l0.271,0.75l0.18,0.61l0.23,0.6c0.45,1.24,0.45,2.35,0,2.5c-0.46,0.14-1.2-0.73-1.63-1.94l-0.71-1.94
				c-0.28-0.68-0.46-1.45-0.53-2.18c-0.18-1.47,0-2.88,0.1-4.23c0.05-0.68,0.1-1.34,0.1-1.99c0-0.66-0.02-1.28-0.15-1.87
				c-0.05-0.26-0.15-0.55-0.25-0.79c-0.13-0.25-0.26-0.49-0.44-0.68c-0.35-0.39-0.81-0.68-1.42-0.92c-0.12-0.08-0.22-0.13-0.35-0.15
				c-0.1-0.02-0.23-0.07-0.33-0.1l-0.15-0.04l-0.13-0.03c-0.05,0-0.1,0-0.13,0c-0.05,0-0.07,0-0.1,0c-0.02,0-0.02,0-0.05,0
				c-0.02,0-0.02,0-0.02,0c-0.03,0.03-0.03,0.03-0.03,0.03s0,0.04-0.02,0.04c-0.05,0.1-0.13,0.29-0.16,0.51
				c-0.07,0.44-0.07,0.99-0.1,1.55c-0.02,0.56-0.07,1.14-0.13,1.72c-0.12,1.16-0.35,2.33-0.73,3.44c-0.38,1.11-0.96,2.2-1.6,3.15
				c-0.63,0.97-1.29,1.89-1.88,2.81c-0.28,0.48-0.56,0.94-0.76,1.43c-0.23,0.48-0.41,1.01-0.66,1.55c-0.23,0.53-0.56,1.09-1.04,1.55
				c-0.51,0.43-1.14,0.7-1.77,0.77c-0.48,0.07-0.96,0.09-1.43,0.09c-0.72,0-1.42-0.05-2.13-0.069c-0.3,0-0.46-0.091-0.46-0.19
				c0-0.09,0.16-0.2,0.46-0.22C9.57,25.71,10.76,25.73,11.83,25.49z"/>
			<path fill="#FFFFFF" d="M34.51,38.86c0.16,0,0.311,0,0.46,0c0.311,0,0.641-0.03,0.971-0.07c0.659-0.08,1.31-0.2,2.029-0.32
				c0.65-0.12,2.48-0.02,2.69-0.439c0.2-0.391,0.2-0.84,0.05-1.261c-0.16-0.409-0.46-0.77-0.82-0.989
				c-0.17-0.12-0.38-0.19-0.58-0.24c-0.1,0.05-0.229,0.07-0.35,0.1c-1.55,0.221-3.13,0.5-4.83,0.53l-0.22,0.1
				c-0.41,0.171-0.69,0.41-0.87,0.7c-0.2,0.34-0.18,0.8,0,1.141c0.2,0.34,0.58,0.6,1.09,0.699L34.51,38.86z M33.68,31.79
				c-0.13,0.02-0.229,0.07-0.33,0.12c-0.46,0.189-0.79,0.46-0.939,0.8c-0.08,0.19-0.13,0.41-0.08,0.63
				c0.05,0.21,0.15,0.43,0.3,0.601c0.34,0.359,0.87,0.56,1.48,0.56c1.47,0,2.989-0.27,4.569-0.51c0.761-0.101,1.521,0.439,1.67,0.39
				c0.561-0.189,0.99-0.58,1.19-1.07c0.229-0.46,0.229-1.02-0.021-1.449c-0.109-0.221-0.26-0.41-0.439-0.561
				c-0.17-0.14-0.37-0.21-0.6-0.26c-0.211-0.05-0.461-0.05-0.74-0.05c-0.2,0.12-0.46,0.189-0.74,0.24c-1.62,0.22-3.29,0.46-5,0.56
				C33.91,31.79,33.78,31.79,33.68,31.79z M33.12,27.48c-0.13,0.05-0.23,0.09-0.33,0.119c-0.51,0.19-0.84,0.48-0.97,0.801
				c-0.07,0.189-0.07,0.409,0,0.63c0.08,0.21,0.229,0.43,0.43,0.63c0.44,0.359,1.05,0.55,1.68,0.5c1.601-0.09,3.2-0.33,4.851-0.55
				c0.779-0.12,2.739-0.271,2.989-0.801c0.2-0.51,0.15-1.069-0.13-1.5c-0.12-0.22-0.3-0.42-0.5-0.529
				c-0.21-0.13-0.46-0.2-0.72-0.221c-0.15,0-0.3,0-0.479,0c-0.25,0.141-0.53,0.221-0.86,0.261l-5.25,0.609
				C33.6,27.43,33.37,27.45,33.12,27.48z M31.16,24.33c-0.07,0.22-0.05,0.46-0.021,0.7c0.021,0.05,0.051,0.12,0.07,0.17l0.13,0.17
				c0.101,0.1,0.18,0.189,0.28,0.27c0.21,0.12,0.43,0.19,0.79,0.21c0.35,0.03,0.76,0,1.189-0.05l5.2-0.6
				c0.84-0.1,2.891-0.29,3.07-0.85c0.21-0.56,0.08-1.16-0.25-1.57c-0.15-0.22-0.38-0.39-0.61-0.49c-0.229-0.09-0.479-0.14-0.79-0.14
				c-0.27,0-0.609,0.05-0.96,0.1c-0.359,0.04-0.74,0.09-1.09,0.14c-1.45,0.17-2.87,0.27-4.22,0.49c-0.33,0.04-0.65,0.12-0.98,0.19
				c-0.18,0.02-0.34,0.07-0.489,0.12c-0.12,0.05-0.23,0.1-0.351,0.14C31.67,23.55,31.29,23.94,31.16,24.33z M9.08,40.92
				c1.6-0.32,3.2-0.75,4.9-0.97c0.87-0.12,1.75-0.12,2.62-0.05c0.86,0.1,1.7,0.239,2.53,0.439c1.65,0.38,3.25,0.87,4.8,1.141
				c0.79,0.14,1.52,0.21,2.339,0.21c0.811,0,1.591-0.021,2.41-0.091c1.98-0.17,3.95-0.56,5.96-0.88L35.4,40.6
				c0.25-0.02,0.479-0.069,0.689-0.119c0.25-0.051,0.5-0.12,0.73-0.221c-0.2,0.03-0.431,0.08-0.66,0.101
				c-0.38,0.029-0.76,0.069-1.141,0.069c-0.18,0.03-0.38,0.03-0.579,0c-0.23-0.02-0.44-0.02-0.66-0.069
				c-0.86-0.141-1.75-0.7-2.24-1.521c-0.48-0.83-0.48-1.92,0-2.72c0.13-0.21,0.28-0.43,0.46-0.601c-0.23-0.149-0.46-0.319-0.63-0.51
				c-0.36-0.39-0.61-0.87-0.71-1.399c-0.11-0.54,0-1.091,0.2-1.58c0.149-0.34,0.38-0.65,0.659-0.891
				c-0.149-0.08-0.31-0.17-0.43-0.29c-0.38-0.369-0.74-0.8-0.92-1.34c-0.17-0.529-0.2-1.13,0-1.689c0.11-0.221,0.21-0.46,0.36-0.63
				l0.18-0.221c-0.03,0-0.03-0.02-0.05-0.02c-0.26-0.2-0.46-0.41-0.641-0.63C29.94,26.22,29.87,26.1,29.79,25.98
				c-0.08-0.12-0.15-0.24-0.2-0.391c-0.229-0.53-0.26-1.21-0.08-1.77c0.311-0.94,1.04-1.57,1.86-1.96c0.2-0.09,0.399-0.17,0.63-0.24
				c0.18-0.05,0.38-0.1,0.56-0.15c0.381-0.07,0.73-0.14,1.12-0.19c0.761-0.1-0.72-0.07-0.72-0.07c-0.78,0.05-1.54,0.1-2.33,0.12
				c-1.27,0.05-2.54,0.07-3.83,0.05l-0.18-0.61c1.3-0.32,2.62-0.58,3.91-0.8c0.76-0.15,1.55-0.27,2.31-0.37l1.17-0.14l0.28-0.02
				l0.33-0.03c0.229-0.02,0.43-0.02,0.66-0.02c1.06,0,2.13,0.24,3.069,0.58c0.811,0.29,1.57,0.65,2.28,0.99
				c0.33,0.05,0.69,0.17,0.99,0.34c0.38,0.24,0.689,0.56,0.91,0.92c0.46,0.73,0.46,1.65,0.109,2.35
				c-0.229,0.51-0.67,0.92-1.14,1.161c0.09,0.05,0.17,0.119,0.27,0.199c0.33,0.29,0.591,0.601,0.74,0.96
				c0.33,0.73,0.28,1.58-0.1,2.23c-0.26,0.439-0.641,0.8-1.101,0.93c0.21,0.12,0.41,0.24,0.561,0.41c0.28,0.31,0.46,0.65,0.58,0.99
				c0.26,0.7,0.13,1.5-0.271,2.109c-0.39,0.58-0.989,0.99-1.68,1.11c0.03,0.03,0.08,0.05,0.1,0.07c0.54,0.46,0.92,1.05,1.04,1.7
				c0.13,0.63,0.03,1.359-0.399,1.89c-0.181,0.22-0.41,0.41-0.66,0.53c-0.05,0.069-0.08,0.149-0.13,0.22
				c-0.28,0.43-0.61,0.87-0.99,1.28c-0.38,0.439-0.86,0.8-1.4,1.09c-0.5,0.29-1.06,0.49-1.619,0.609
				c-0.28,0.07-0.53,0.12-0.811,0.171l-0.74,0.119c-1.979,0.311-4.01,0.7-6.09,0.87c-0.859,0.07-1.72,0.101-2.59,0.07
				c-0.86,0-1.77-0.12-2.61-0.29c-1.73-0.34-3.3-0.92-4.85-1.38c-1.57-0.46-3.09-0.8-4.69-0.73c-1.6,0.051-3.25,0.32-4.93,0.44
				C8.7,41.36,8.65,40.99,9.08,40.92z"/>
		</g>
		<g>
		</g>
	</g>
</g>
</svg>
