<?xml version="1.0" encoding="utf-8"?>
<!-- Generator: Adobe Illustrator 16.0.0, SVG Export Plug-In . SVG Version: 6.00 Build 0)  -->
<!DOCTYPE svg PUBLIC "-//W3C//DTD SVG 1.1//EN" "http://www.w3.org/Graphics/SVG/1.1/DTD/svg11.dtd">
<svg version="1.1" id="레이어_1" xmlns="http://www.w3.org/2000/svg" xmlns:xlink="http://www.w3.org/1999/xlink" x="0px"
	 y="0px" width="50px" height="50px" viewBox="0 0 50 50" enable-background="new 0 0 50 50" xml:space="preserve">
<g>
	<path fill="#040000" d="M17.739,37.262c2.69-0.754,5.203-2.4,6.928-4.627c1.066-1.357,1.903-2.857,2.512-4.432
		c0.127-0.387-0.127-0.801-0.584-0.922c-0.455-0.119-0.913,0.025-1.041,0.365c-0.558,1.428-1.293,2.783-2.259,3.994
		c-1.547,2.012-3.45,3.754-5.734,5.23l0,0C17.41,36.994,17.562,37.332,17.739,37.262z"/>
	<path fill="#040000" d="M42.406,29.123c0.381-0.654,0.43-1.5,0.102-2.229c-0.152-0.363-0.404-0.678-0.736-0.968
		c-0.102-0.072-0.178-0.146-0.277-0.194c0.48-0.241,0.912-0.653,1.141-1.162c0.355-0.702,0.355-1.623-0.102-2.349
		c-0.227-0.363-0.533-0.678-0.912-0.92c-0.305-0.17-0.66-0.291-0.99-0.339c-0.711-0.339-1.473-0.702-2.285-0.993
		c-0.938-0.339-2.004-0.581-3.07-0.581c-0.229,0-0.432,0-0.66,0.024l-0.328,0.024l-0.281,0.024l-1.168,0.145
		c-0.76,0.097-1.547,0.218-2.309,0.364c-1.293,0.217-2.613,0.484-3.908,0.799l-0.277-0.751c-0.254-0.581-0.382-1.163-0.458-1.792
		c-0.152-1.235,0-2.567,0.125-3.923c0.053-0.678,0.104-1.38,0.129-2.107c0-0.727-0.025-1.453-0.179-2.204
		c-0.075-0.387-0.203-0.775-0.381-1.138c-0.177-0.387-0.406-0.726-0.684-1.066c-0.28-0.338-0.609-0.605-0.965-0.822
		c-0.355-0.218-0.735-0.412-1.092-0.558c-0.151-0.073-0.304-0.122-0.456-0.169c-0.152-0.048-0.304-0.097-0.508-0.145l-0.253-0.073
		l-0.305-0.024c-0.102-0.024-0.203-0.024-0.33-0.024c-0.127,0-0.228,0-0.355,0.024c-0.127,0.024-0.253,0.072-0.38,0.097
		c-0.127,0.048-0.254,0.121-0.381,0.193c-0.102,0.073-0.204,0.17-0.305,0.267c-0.102,0.097-0.152,0.194-0.228,0.291
		c-0.229,0.387-0.305,0.75-0.381,1.089c-0.102,0.654-0.102,1.235-0.102,1.792s-0.026,1.09-0.077,1.622
		c-0.076,1.066-0.253,2.131-0.558,3.125c-0.305,1.017-0.762,1.961-1.345,2.906c-0.558,0.944-1.192,1.914-1.751,2.93
		c-0.278,0.509-0.533,1.041-0.735,1.599c-0.204,0.557-0.356,1.089-0.533,1.598c-0.178,0.508-0.406,0.944-0.736,1.308
		c-0.33,0.339-0.787,0.557-1.294,0.678c-1.065,0.241-2.258,0.218-3.426,0.29l0,0c-0.609,0.049-0.609,0.413,0,0.413l0,0
		c1.168,0.023,2.335,0.146,3.553-0.025c0.634-0.072,1.269-0.338,1.776-0.774c0.482-0.459,0.812-1.017,1.041-1.55
		c0.253-0.532,0.431-1.065,0.66-1.549c0.203-0.484,0.481-0.945,0.761-1.429c0.583-0.92,1.244-1.84,1.878-2.809
		c0.634-0.945,1.219-2.034,1.598-3.148c0.381-1.113,0.609-2.276,0.736-3.439c0.051-0.581,0.102-1.162,0.127-1.72
		c0.025-0.557,0.025-1.113,0.101-1.549c0.026-0.218,0.103-0.412,0.152-0.508c0.026,0,0.026-0.049,0.026-0.049s0,0,0.025-0.025
		c0,0,0,0,0.025,0c0.025,0,0.025,0,0.051,0c0.025,0,0.05,0,0.101,0c0.025,0,0.076,0,0.127,0l0.126,0.025l0.153,0.049
		c0.101,0.023,0.228,0.072,0.329,0.096c0.127,0.025,0.229,0.073,0.356,0.146c0.608,0.243,1.065,0.533,1.42,0.92
		c0.178,0.194,0.304,0.436,0.432,0.679c0.101,0.241,0.202,0.532,0.253,0.799c0.128,0.581,0.153,1.211,0.153,1.865
		s-0.051,1.307-0.102,1.986c-0.102,1.356-0.279,2.761-0.102,4.237c0.076,0.727,0.254,1.502,0.532,2.18l0.712,1.938
		c0.432,1.21,1.167,2.083,1.625,1.937c0.455-0.146,0.455-1.259,0-2.494l-0.23-0.605c1.295,0.024,2.564,0,3.834-0.049
		c0.785-0.024,1.547-0.072,2.334-0.121c0,0,1.471-0.024,0.711,0.072c-0.381,0.049-0.736,0.122-1.117,0.194
		c-0.178,0.049-0.381,0.097-0.559,0.146c-0.229,0.073-0.432,0.146-0.635,0.242c-0.813,0.387-1.547,1.018-1.852,1.961
		c-0.18,0.557-0.152,1.235,0.076,1.768c0.049,0.145,0.125,0.267,0.203,0.388c0.074,0.121,0.15,0.242,0.227,0.339
		c0.18,0.217,0.381,0.436,0.637,0.629c0.023,0,0.023,0.023,0.049,0.023l-0.178,0.219c-0.15,0.17-0.252,0.412-0.355,0.631
		c-0.201,0.557-0.176,1.162,0,1.693c0.18,0.535,0.533,0.971,0.914,1.334c0.127,0.119,0.279,0.217,0.432,0.289
		c-0.279,0.242-0.508,0.557-0.66,0.896c-0.201,0.484-0.305,1.041-0.201,1.574c0.102,0.533,0.354,1.018,0.709,1.402
		c0.178,0.195,0.406,0.365,0.635,0.512c-0.178,0.168-0.33,0.387-0.457,0.604c-0.482,0.801-0.482,1.889,0,2.713
		s1.371,1.381,2.232,1.525c0.229,0.047,0.432,0.047,0.66,0.072c0.203,0.023,0.406,0.023,0.584,0c0.381,0,0.762-0.047,1.143-0.072
		c0.227-0.025,0.457-0.072,0.66-0.098c-0.229,0.098-0.482,0.17-0.736,0.219c-0.203,0.049-0.432,0.098-0.686,0.121l-0.762,0.121
		c-2.006,0.316-3.982,0.701-5.963,0.871c-0.813,0.072-1.6,0.098-2.41,0.098c-0.813,0-1.548-0.072-2.336-0.217
		c-1.548-0.268-3.147-0.752-4.796-1.141c-0.837-0.193-1.675-0.338-2.538-0.434c-0.863-0.072-1.75-0.072-2.614,0.047
		c-1.701,0.217-3.299,0.654-4.897,0.969c-0.432,0.072-0.381,0.438,0.05,0.412c1.675-0.121,3.324-0.387,4.923-0.436
		c1.598-0.072,3.121,0.266,4.695,0.727c1.548,0.459,3.121,1.041,4.847,1.379c0.838,0.17,1.751,0.291,2.615,0.291
		c0.861,0.025,1.725,0,2.588-0.07c2.08-0.172,4.111-0.559,6.092-0.873l0.734-0.121c0.279-0.049,0.533-0.098,0.813-0.17
		c0.559-0.121,1.115-0.316,1.623-0.607c0.533-0.289,1.016-0.652,1.396-1.088c0.379-0.412,0.711-0.848,0.988-1.283
		c0.051-0.072,0.076-0.146,0.129-0.219c0.252-0.121,0.48-0.314,0.66-0.533c0.43-0.531,0.531-1.258,0.404-1.889
		c-0.125-0.652-0.506-1.234-1.039-1.695c-0.025-0.023-0.078-0.047-0.104-0.072c0.686-0.121,1.295-0.531,1.678-1.115
		c0.404-0.604,0.531-1.404,0.277-2.105c-0.127-0.338-0.305-0.678-0.584-0.994c-0.15-0.168-0.354-0.289-0.557-0.408
		C41.771,29.924,42.152,29.559,42.406,29.123z M41.545,33.313c-0.203,0.484-0.637,0.873-1.193,1.064
		c-0.152,0.049-0.914-0.482-1.676-0.387c-1.572,0.244-3.096,0.51-4.568,0.51c-0.609,0-1.141-0.195-1.473-0.557
		c-0.15-0.17-0.252-0.391-0.303-0.607c-0.051-0.219,0-0.436,0.076-0.629c0.152-0.34,0.482-0.605,0.939-0.799
		c0.102-0.049,0.203-0.098,0.33-0.121c0.1,0,0.229,0,0.328,0c1.701-0.098,3.377-0.34,5-0.557c0.279-0.049,0.533-0.121,0.736-0.242
		c0.279,0,0.533,0,0.736,0.049c0.229,0.049,0.43,0.119,0.607,0.266c0.178,0.145,0.33,0.338,0.434,0.557
		C41.771,32.295,41.771,32.854,41.545,33.313z M38.777,29.607c-1.65,0.219-3.248,0.459-4.846,0.557
		c-0.635,0.049-1.244-0.145-1.678-0.508c-0.201-0.193-0.354-0.412-0.43-0.631c-0.076-0.217-0.076-0.438,0-0.629
		c0.127-0.314,0.457-0.605,0.965-0.799c0.102-0.025,0.203-0.072,0.328-0.121c0.256-0.025,0.482-0.049,0.713-0.049l5.252-0.605
		c0.332-0.047,0.609-0.121,0.863-0.266c0.178,0,0.33,0,0.48,0c0.256,0.021,0.51,0.096,0.713,0.219
		c0.203,0.119,0.381,0.314,0.506,0.531c0.279,0.436,0.33,0.992,0.127,1.502C41.52,29.342,39.564,29.486,38.777,29.607z
		 M31.164,24.328c0.127-0.387,0.508-0.774,0.965-0.993c0.125-0.048,0.227-0.096,0.355-0.145c0.15-0.049,0.305-0.097,0.482-0.122
		c0.33-0.073,0.658-0.145,0.988-0.193c1.346-0.218,2.768-0.315,4.215-0.484c0.354-0.049,0.734-0.097,1.09-0.146
		c0.355-0.048,0.686-0.096,0.963-0.096c0.305,0,0.561,0.048,0.787,0.145c0.23,0.097,0.457,0.266,0.611,0.484
		c0.328,0.412,0.457,1.017,0.252,1.574c-0.178,0.557-2.232,0.751-3.07,0.848L33.6,25.805c-0.43,0.049-0.836,0.073-1.191,0.049
		s-0.584-0.098-0.787-0.218c-0.102-0.073-0.178-0.17-0.279-0.267L31.215,25.2c-0.025-0.048-0.051-0.121-0.074-0.169
		C31.113,24.789,31.088,24.546,31.164,24.328z M37.967,38.471c-0.713,0.119-1.371,0.24-2.031,0.314
		c-0.33,0.049-0.66,0.072-0.965,0.072c-0.152,0-0.305,0-0.457,0l-0.379-0.047c-0.51-0.1-0.891-0.363-1.094-0.703
		c-0.178-0.34-0.203-0.801,0-1.139c0.178-0.289,0.457-0.533,0.865-0.703l0.229-0.096c1.699-0.025,3.273-0.314,4.82-0.531
		c0.127-0.025,0.254-0.051,0.357-0.098c0.201,0.047,0.404,0.119,0.582,0.242c0.355,0.217,0.66,0.58,0.813,0.992
		s0.152,0.871-0.051,1.26C40.451,38.447,38.625,38.35,37.967,38.471z"/>
</g>
</svg>
