<?xml version="1.0" encoding="utf-8"?>
<!-- Generator: Adobe Illustrator 16.0.0, SVG Export Plug-In . SVG Version: 6.00 Build 0)  -->
<!DOCTYPE svg PUBLIC "-//W3C//DTD SVG 1.1//EN" "http://www.w3.org/Graphics/SVG/1.1/DTD/svg11.dtd">
<svg version="1.1" id="레이어_1" xmlns="http://www.w3.org/2000/svg" xmlns:xlink="http://www.w3.org/1999/xlink" x="0px"
	 y="0px" width="45px" height="55px" viewBox="0 0 45 55" enable-background="new 0 0 45 55" xml:space="preserve">
<g>
	<path fill="#C30D23" d="M37.039,19.684c0-2.47-2.801-4.473-6.257-4.473H14.19c-3.455,0-6.255,2.003-6.255,4.473L7.844,28.75
		C13.233,36.24,20.05,44.184,22.1,55c1.403-10.559,9.015-18.623,15.054-26.25L37.039,19.684z"/>
	<circle fill="#C30D23" cx="22.5" cy="7.203" r="5.867"/>
</g>
<g>
	<g id="XMLID_1_">
		<g>
			<path fill="#F7F8F8" d="M20.08,26.05c0.12-1.13,1.02-2.07,2.19-2.16c0.12-0.03,0.23,0.09,0.23,0.2c0,0.12-0.09,0.2-0.2,0.2
				c-0.97,0.09-1.71,0.85-1.82,1.79c0,0.12-0.11,0.2-0.2,0.2C20.17,26.28,20.05,26.17,20.08,26.05z"/>
			<path fill="#F7B5B5" d="M22.27,23.89c-1.17,0.09-2.07,1.03-2.19,2.16c-0.03,0.12,0.09,0.23,0.2,0.23c0.09,0,0.2-0.08,0.2-0.2
				c0.11-0.94,0.85-1.7,1.82-1.79c0.11,0,0.2-0.08,0.2-0.2C22.5,23.98,22.39,23.86,22.27,23.89z M19.46,26.31
				c0-1.68,1.36-3.01,3.04-3.01c1.68,0,3.04,1.36,3.04,3.01s-1.36,3.01-3.04,3.01C20.82,29.32,19.46,27.96,19.46,26.31z"/>
			<path fill="#F7F8F8" d="M17.62,26.3c0-2.68,2.18-4.83,4.86-4.83s4.86,2.18,4.86,4.83c0,2.681-2.18,4.84-4.86,4.84
				S17.62,28.98,17.62,26.3z M19.46,26.31c0,1.65,1.36,3.01,3.04,3.01c1.68,0,3.04-1.36,3.04-3.01s-1.36-3.01-3.04-3.01
				C20.82,23.3,19.46,24.63,19.46,26.31z"/>
			<path fill="#F7F8F8" d="M27.96,20.79v0.71h2.19v-0.71H27.96z M14.79,19.57c0-0.2,0.17-0.37,0.37-0.37h0.85
				c0.2,0,0.37,0.17,0.37,0.37h2l0.68-1.51c0.14-0.28,0.42-0.45,0.74-0.45h5.37c0.32,0,0.6,0.17,0.75,0.45l0.71,1.51h4.15
				c0.14,0,0.25,0.11,0.25,0.26v10.46c0,0.15-0.11,0.26-0.25,0.26H25.6c1.341-0.939,2.221-2.51,2.221-4.27
				c0-2.9-2.42-5.26-5.35-5.26c-2.9,0-5.26,2.33-5.32,5.23c0,1.77,0.88,3.36,2.22,4.33h-5.15c-0.14,0-0.25-0.12-0.25-0.26V19.83
				c0-0.15,0.11-0.26,0.25-0.26H14.79z"/>
		</g>
		<g>
		</g>
	</g>
</g>
</svg>
