<?xml version="1.0" encoding="utf-8"?>
<!-- Generator: Adobe Illustrator 16.0.0, SVG Export Plug-In . SVG Version: 6.00 Build 0)  -->
<!DOCTYPE svg PUBLIC "-//W3C//DTD SVG 1.1//EN" "http://www.w3.org/Graphics/SVG/1.1/DTD/svg11.dtd">
<svg version="1.1" id="레이어_1" xmlns="http://www.w3.org/2000/svg" xmlns:xlink="http://www.w3.org/1999/xlink" x="0px"
	 y="0px" width="60px" height="60px" viewBox="0 0 60 60" enable-background="new 0 0 60 60" xml:space="preserve">
<path fill="#040000" d="M42.285,28.339l6.052-8.183l-1.601-1.6l-4.69,6.343l-1.805-1.805l-1.601,1.6L42.285,28.339 M39.29,30.305
	l-4.573,2.461l2.404-3.775l-0.419-0.354l-0.389-0.386l-0.359-0.413l-0.331-0.438l-0.296-0.461l-0.262-0.482l-0.225-0.5l-0.188-0.515
	l-0.148-0.528l-0.11-0.537l-0.068-0.543l-0.013-0.542l0.029-0.54l0.07-0.537l0.109-0.53l0.149-0.521l0.19-0.507l0.227-0.491
	l0.263-0.472l0.297-0.451l0.331-0.429l0.363-0.401l0.426-0.412l0.451-0.383l0.476-0.354l0.497-0.324l0.515-0.292l0.533-0.258
	l0.548-0.225l0.563-0.189l0.571-0.153l0.581-0.117l0.588-0.08l0.604-0.058l0.605-0.021l0.604,0.014l0.604,0.052l0.601,0.087
	l0.592,0.124l0.586,0.16l0.573,0.194l0.562,0.228l0.547,0.262l0.529,0.294l0.441,0.283l0.423,0.31l0.403,0.335l0.381,0.36
	l0.358,0.382l0.334,0.404l0.291,0.405l0.264,0.423l0.233,0.44l0.203,0.456L52,21.23l0.14,0.479l0.104,0.525l0.064,0.532l0.022,0.535
	l-0.019,0.535l-0.06,0.533l-0.102,0.526l-0.141,0.516l-0.18,0.505l-0.218,0.489l-0.255,0.471l-0.29,0.45l-0.311,0.417l-0.339,0.398
	l-0.36,0.375l-0.385,0.352l-0.404,0.327l-0.426,0.301l-0.464,0.289l-0.479,0.262l-0.494,0.234l-0.507,0.207l-0.518,0.177
	l-0.524,0.147l-0.597,0.133l-0.602,0.098l-0.605,0.062l-0.609,0.024l-0.609-0.01l-0.607-0.047l-0.604-0.083l-0.598-0.119
	l-0.589-0.153l-0.581-0.19L39.29,30.305"/>
<polyline fill="#040000" points="28.051,35.756 28.186,35.744 28.32,35.766 28.442,35.823 28.545,35.913 28.621,36.024 
	28.665,36.152 28.671,36.289 28.644,36.421 28.581,36.541 28.489,36.64 27.77,36.976 27.036,37.273 26.289,37.536 25.53,37.763 
	24.76,37.954 23.982,38.106 23.197,38.221 22.409,38.296 21.617,38.334 20.825,38.334 20.033,38.296 19.245,38.221 18.46,38.106 
	17.683,37.954 16.913,37.763 16.154,37.536 15.407,37.273 14.672,36.976 13.954,36.64 13.862,36.541 13.799,36.421 13.771,36.289 
	13.778,36.152 13.822,36.024 13.898,35.913 14,35.823 14.124,35.766 14.256,35.744 14.391,35.756 15.104,36.088 15.833,36.386 
	16.576,36.642 17.331,36.862 18.097,37.042 18.871,37.184 19.65,37.285 20.435,37.345 21.221,37.364 22.007,37.345 22.792,37.285 
	23.572,37.184 24.346,37.042 25.112,36.862 25.867,36.642 26.61,36.386 27.338,36.088 28.051,35.756 "/>
<path fill="#040000" d="M27.996,28.227l0.16-0.491l0.12-0.501l0.082-0.51l0.041-0.514v-0.516l-0.041-0.515l-0.082-0.51l-0.12-0.501
	l-0.16-0.491l-0.242-0.222l-0.265-0.193L27.203,23.1L26.9,22.972l-0.314-0.093l-0.324-0.056l-0.328-0.02l-0.328,0.02l-0.324,0.056
	l-0.315,0.093L24.664,23.1l-0.285,0.162l-0.265,0.194l-0.242,0.223l-0.16,0.49l-0.121,0.502l-0.081,0.51l-0.041,0.514v0.516
	l0.041,0.515l0.081,0.51l0.121,0.501l0.16,0.491l0.242,0.222l0.265,0.193l0.285,0.162l0.303,0.128l0.315,0.093l0.324,0.057
	l0.328,0.018l0.328-0.018l0.324-0.057l0.314-0.093l0.303-0.128l0.286-0.162l0.265-0.193L27.996,28.227 M28.587,23.312l0.178,0.51
	l0.139,0.522l0.101,0.531l0.061,0.538l0.02,0.54l-0.02,0.541l-0.061,0.537l-0.101,0.532l-0.139,0.522l-0.178,0.51l-0.263,0.266
	l-0.29,0.237l-0.313,0.206l-0.333,0.171l-0.349,0.135l-0.361,0.097l-0.369,0.059l-0.375,0.02l-0.373-0.02l-0.37-0.059l-0.362-0.097
	l-0.349-0.135l-0.333-0.171l-0.313-0.206l-0.29-0.237l-0.264-0.266l-0.177-0.51l-0.14-0.522l-0.101-0.532l-0.06-0.537l-0.02-0.541
	l0.02-0.54l0.06-0.538l0.101-0.531l0.14-0.522l0.177-0.51l0.264-0.267l0.29-0.237l0.313-0.205l0.333-0.172l0.349-0.135l0.362-0.097
	l0.37-0.059l0.373-0.02l0.375,0.02l0.369,0.059l0.361,0.097l0.349,0.135l0.333,0.172l0.313,0.205l0.29,0.237L28.587,23.312"/>
<path fill="#040000" d="M18.57,28.226l0.16-0.491l0.121-0.501l0.081-0.51l0.041-0.514v-0.516l-0.041-0.515l-0.081-0.51l-0.121-0.501
	l-0.16-0.491l-0.242-0.223l-0.265-0.193L17.777,23.1l-0.303-0.128l-0.315-0.092l-0.324-0.056l-0.327-0.02l-0.328,0.02l-0.324,0.056
	l-0.315,0.092L15.239,23.1l-0.286,0.162l-0.265,0.193l-0.242,0.223l-0.16,0.491l-0.121,0.501l-0.081,0.51l-0.041,0.515v0.516
	l0.041,0.514l0.081,0.51l0.121,0.501l0.16,0.491l0.242,0.223l0.265,0.193l0.286,0.162l0.303,0.128l0.315,0.093l0.324,0.057
	l0.328,0.019l0.327-0.019l0.324-0.057l0.315-0.093l0.303-0.128l0.286-0.162l0.265-0.193L18.57,28.226 M19.161,28.593l-0.263,0.267
	l-0.29,0.236l-0.313,0.205l-0.333,0.172l-0.349,0.134l-0.361,0.098l-0.37,0.059l-0.374,0.02l-0.374-0.02l-0.369-0.059l-0.362-0.098
	l-0.349-0.134l-0.333-0.172l-0.313-0.205l-0.29-0.236l-0.263-0.267l-0.178-0.51l-0.14-0.522l-0.101-0.532l-0.06-0.537l-0.021-0.54
	l0.021-0.54l0.06-0.538l0.101-0.531l0.14-0.522l0.178-0.51l0.263-0.266l0.29-0.237l0.313-0.205l0.333-0.171l0.349-0.135l0.362-0.097
	l0.369-0.06l0.374-0.019l0.374,0.019l0.37,0.06l0.361,0.097l0.349,0.135l0.333,0.171l0.313,0.205l0.29,0.237l0.263,0.266l0.179,0.51
	l0.139,0.522l0.1,0.531l0.061,0.538l0.021,0.54l-0.021,0.54l-0.061,0.537l-0.1,0.532l-0.139,0.522L19.161,28.593"/>
<path fill="#040000" d="M11.595,19.412l-0.388,1.019l-0.348,1.033l-0.309,1.045l-0.268,1.057l-0.229,1.066l-0.187,1.074
	l-0.146,1.081l-0.104,1.084l-0.063,1.089L9.533,30.05l0.021,1.089l0.063,1.089l0.104,1.085l0.146,1.081l0.187,1.073l0.229,1.065
	l0.268,1.057l0.309,1.046l0.348,1.033l0.388,1.02l0.337,0.583l0.372,0.56l0.406,0.536l0.438,0.511l0.468,0.483l0.497,0.453
	l0.525,0.423l0.549,0.388l0.572,0.354l0.592,0.318l0.612,0.281l0.627,0.242l0.642,0.204l0.652,0.163l0.662,0.125l0.668,0.082
	l0.672,0.042h0.672l0.671-0.042l0.667-0.082l0.662-0.125l0.652-0.163l0.642-0.204l0.627-0.242l0.611-0.281l0.593-0.318l0.572-0.354
	l0.549-0.388l0.524-0.423l0.497-0.453l0.468-0.483l0.438-0.511l0.405-0.536l0.373-0.56l0.337-0.583l0.388-1.02l0.349-1.033
	l0.309-1.046l0.269-1.057l0.229-1.065l0.186-1.073l0.146-1.081l0.104-1.085l0.063-1.089l0.021-1.089l-0.021-1.091l-0.063-1.089
	l-0.104-1.084l-0.146-1.081l-0.186-1.074l-0.229-1.066l-0.269-1.057l-0.309-1.046l-0.349-1.033l-0.388-1.019l-0.337-0.583
	l-0.373-0.561l-0.405-0.537l-0.438-0.511l-0.468-0.482l-0.497-0.454l-0.524-0.422l-0.549-0.388l-0.572-0.354l-0.593-0.318
	l-0.611-0.281l-0.627-0.244l-0.642-0.204l-0.652-0.164l-0.662-0.124l-0.667-0.083l-0.671-0.042h-0.672l-0.672,0.042l-0.668,0.083
	l-0.662,0.124l-0.652,0.164l-0.642,0.204l-0.627,0.244l-0.612,0.281l-0.592,0.318l-0.572,0.354l-0.549,0.388l-0.525,0.422
	l-0.497,0.454l-0.468,0.482l-0.438,0.511l-0.406,0.537l-0.372,0.561L11.595,19.412 M10.976,19.122l0.347-0.605l0.382-0.583
	l0.417-0.559l0.449-0.533l0.48-0.506l0.509-0.475l0.538-0.444l0.563-0.411l0.587-0.376l0.608-0.34l0.627-0.304l0.645-0.265
	l0.659-0.227l0.672-0.186l0.681-0.146l0.689-0.104l0.695-0.063l0.696-0.021l0.697,0.021l0.694,0.063l0.689,0.104l0.682,0.146
	l0.671,0.186l0.66,0.227l0.644,0.265l0.628,0.304l0.608,0.34l0.587,0.376l0.563,0.411l0.537,0.444l0.51,0.475l0.481,0.506
	l0.449,0.533l0.417,0.559l0.382,0.583l0.345,0.605l0.383,0.996l0.347,1.01l0.308,1.021l0.271,1.032l0.23,1.041l0.195,1.049
	l0.155,1.055l0.117,1.06l0.078,1.064l0.039,1.066v1.068l-0.039,1.065l-0.078,1.065l-0.117,1.059L33.2,34.827l-0.195,1.05
	l-0.23,1.041l-0.271,1.031l-0.308,1.022l-0.347,1.01l-0.383,0.996l-0.346,0.605l-0.383,0.583l-0.416,0.559l-0.45,0.534l-0.48,0.505
	l-0.509,0.476l-0.538,0.443l-0.563,0.411l-0.587,0.377l-0.608,0.34l-0.628,0.305l-0.644,0.266l-0.659,0.226l-0.671,0.186
	l-0.682,0.145l-0.689,0.104l-0.694,0.064l-0.696,0.021l-0.696-0.021L19.83,47.04l-0.689-0.104l-0.682-0.145l-0.672-0.186
	l-0.659-0.226l-0.645-0.266l-0.628-0.305l-0.608-0.34l-0.587-0.377l-0.563-0.411l-0.538-0.443l-0.51-0.476l-0.48-0.505l-0.449-0.534
	l-0.417-0.559l-0.382-0.583l-0.346-0.605l-0.382-0.996l-0.345-1.01L9.94,37.95l-0.27-1.031l-0.233-1.041l-0.194-1.049l-0.156-1.056
	l-0.117-1.06L8.893,31.65l-0.039-1.067v-1.067l0.039-1.066l0.079-1.064l0.117-1.06l0.156-1.055l0.194-1.049l0.233-1.041l0.27-1.031
	l0.309-1.022l0.345-1.009L10.976,19.122"/>
<polyline fill="#040000" points="24.978,26.067 24.998,25.83 25.061,25.6 25.161,25.383 25.297,25.189 25.466,25.021 25.66,24.884 
	25.876,24.783 26.106,24.721 26.343,24.701 26.582,24.721 26.811,24.783 27.027,24.884 27.222,25.021 27.39,25.189 27.527,25.383 
	27.627,25.6 27.689,25.83 27.71,26.067 27.689,26.304 27.627,26.535 27.527,26.75 27.39,26.944 27.222,27.114 27.027,27.25 
	26.811,27.35 26.582,27.412 26.343,27.433 26.106,27.412 25.876,27.35 25.66,27.25 25.466,27.114 25.297,26.944 25.161,26.75 
	25.061,26.535 24.998,26.304 24.978,26.067 "/>
<polyline fill="#040000" points="18.284,26.035 18.264,26.273 18.202,26.503 18.102,26.718 17.965,26.914 17.797,27.083 
	17.602,27.219 17.385,27.319 17.155,27.38 16.918,27.401 16.681,27.38 16.451,27.319 16.235,27.219 16.04,27.083 15.871,26.914 
	15.736,26.718 15.635,26.503 15.573,26.273 15.553,26.035 15.573,25.799 15.635,25.569 15.736,25.353 15.871,25.157 16.04,24.989 
	16.235,24.853 16.451,24.752 16.681,24.691 16.918,24.669 17.155,24.691 17.385,24.752 17.602,24.853 17.797,24.989 17.965,25.157 
	18.102,25.353 18.202,25.569 18.264,25.799 18.284,26.035 "/>
</svg>
