<?xml version="1.0" encoding="utf-8"?>
<!-- Generator: Adobe Illustrator 16.0.0, SVG Export Plug-In . SVG Version: 6.00 Build 0)  -->
<!DOCTYPE svg PUBLIC "-//W3C//DTD SVG 1.1//EN" "http://www.w3.org/Graphics/SVG/1.1/DTD/svg11.dtd">
<svg version="1.1" id="레이어_1" xmlns="http://www.w3.org/2000/svg" xmlns:xlink="http://www.w3.org/1999/xlink" x="0px"
	 y="0px" width="40px" height="40px" viewBox="0 0 40 40" enable-background="new 0 0 40 40" xml:space="preserve">
<g>
	<circle fill="#070001" cx="20" cy="20.009" r="19.224"/>
	<path fill="#FFFFFF" d="M20,39.94C9.01,39.94,0.069,31,0.069,20.009C0.069,9.02,9.01,0.08,20,0.08c10.988,0,19.93,8.94,19.93,19.93
		C39.931,31,30.988,39.94,20,39.94z M20,1.494C9.79,1.494,1.483,9.801,1.483,20.009C1.483,30.219,9.79,38.527,20,38.527
		c10.21,0,18.517-8.309,18.517-18.518C38.518,9.801,30.211,1.494,20,1.494z"/>
</g>
<g>
	<path fill="#FFFFFF" d="M31.822,19.272l-5.661-8.841c-0.42-0.677-1.148-1.099-1.945-1.127c-1.271-0.03-2.325,0.979-2.352,2.251
		c-0.002,0.018-0.002,0.035-0.002,0.052v1.419c0,0.183-0.148,0.336-0.333,0.343h-3.071c-0.186-0.007-0.333-0.16-0.333-0.343v-1.344
		c0.01-1.081-0.716-2.03-1.761-2.304c-0.962-0.239-1.967,0.163-2.498,0.998l-5.704,8.897l0,0c-1.585,2.524-0.826,5.855,1.697,7.438
		c2.523,1.588,5.854,0.826,7.44-1.696c0.234-0.372,0.422-0.771,0.559-1.191c0.067-0.203,0.259-0.341,0.475-0.341h3.327
		c0.214,0,0.406,0.138,0.473,0.341c0.918,2.836,3.964,4.39,6.794,3.47c2.838-0.916,4.393-3.96,3.473-6.794
		C32.257,20.067,32.067,19.654,31.822,19.272z M12.728,25.185c-1.677-0.001-3.032-1.361-3.031-3.037c0-1.672,1.36-3.03,3.036-3.028
		c1.675,0.001,3.031,1.359,3.031,3.032c0,1.675-1.357,3.033-3.033,3.033C12.73,25.185,12.728,25.185,12.728,25.185z M19.993,21.646
		c-0.541,0-0.978-0.438-0.978-0.977c0-0.541,0.437-0.977,0.978-0.977s0.979,0.437,0.979,0.977l0,0
		C20.972,21.208,20.534,21.646,19.993,21.646z M27.262,25.185c-1.676,0-3.036-1.358-3.036-3.033c0-1.674,1.36-3.032,3.036-3.032
		s3.031,1.358,3.031,3.032C30.293,23.826,28.938,25.185,27.262,25.185L27.262,25.185z"/>
</g>
</svg>
