<?xml version="1.0" encoding="utf-8"?>
<!-- Generator: Adobe Illustrator 16.0.0, SVG Export Plug-In . SVG Version: 6.00 Build 0)  -->
<!DOCTYPE svg PUBLIC "-//W3C//DTD SVG 1.1//EN" "http://www.w3.org/Graphics/SVG/1.1/DTD/svg11.dtd">
<svg version="1.1" id="레이어_1" xmlns="http://www.w3.org/2000/svg" xmlns:xlink="http://www.w3.org/1999/xlink" x="0px"
	 y="0px" width="50px" height="50px" viewBox="0 0 50 50" enable-background="new 0 0 50 50" xml:space="preserve">
<g id="XMLID_1_">
	<g>
		<path fill="#FFFFFF" d="M38.01,16.58v22.96c0,2.14-1.68,3.82-3.83,3.82H15.82c-2.14,0-3.83-1.681-3.83-3.82V16.58
			c0-0.46,0.31-0.76,0.77-0.76h24.48C37.7,15.82,38.01,16.12,38.01,16.58z M31.89,37.24v-15.3c0-1.03-1.529-1.03-1.529,0v15.3
			C30.36,38.27,31.89,38.27,31.89,37.24z M25.77,37.24v-15.3c0-1.02-1.54-1.03-1.529,0v15.3C24.24,38.27,25.77,38.27,25.77,37.24z
			 M19.64,37.24v-15.3c0-1.02-1.53-1.03-1.53,0v15.3C18.11,38.27,19.64,38.27,19.64,37.24z"/>
		<path fill="#FFFFFF" d="M28.83,9.7V8.17h-7.66V9.7H28.83z M30.36,7.4v2.3h8.409c0.461,0,0.771,0.3,0.771,0.76v3.06
			c0,0.46-0.31,0.77-0.771,0.77H11.23c-0.46,0-0.77-0.31-0.77-0.77v-3.06c0-0.46,0.31-0.76,0.77-0.76h8.41V7.4
			c0-0.46,0.31-0.76,0.77-0.76h9.18C30.05,6.64,30.36,6.94,30.36,7.4z"/>
	</g>
	<g>
	</g>
</g>
</svg>
