<?xml version="1.0" encoding="utf-8"?>
<!-- Generator: Adobe Illustrator 16.0.0, SVG Export Plug-In . SVG Version: 6.00 Build 0)  -->
<!DOCTYPE svg PUBLIC "-//W3C//DTD SVG 1.1//EN" "http://www.w3.org/Graphics/SVG/1.1/DTD/svg11.dtd">
<svg version="1.1" id="레이어_1" xmlns="http://www.w3.org/2000/svg" xmlns:xlink="http://www.w3.org/1999/xlink" x="0px"
	 y="0px" width="50px" height="50px" viewBox="0 0 50 50" enable-background="new 0 0 50 50" xml:space="preserve">
<path fill="#040000" d="M37.244,15.819H12.758c-0.459,0-0.765,0.305-0.765,0.765v22.954c0,2.146,1.683,3.826,3.826,3.826h18.362
	c2.144,0,3.827-1.681,3.827-3.826V16.583C38.009,16.124,37.704,15.819,37.244,15.819z M31.887,21.939v15.304
	c0,1.026-1.53,1.028-1.53,0V21.939C30.356,20.913,31.887,20.914,31.887,21.939z M25.767,21.939v15.304c0,1.026-1.531,1.028-1.531,0
	V21.939C24.235,20.913,25.767,20.915,25.767,21.939z M19.644,21.939v15.304c0,1.026-1.53,1.028-1.53,0V21.939
	C18.114,20.913,19.644,20.915,19.644,21.939z M38.774,9.697h-8.418V7.401c0-0.458-0.305-0.765-0.765-0.765h-9.183
	c-0.458,0-0.765,0.306-0.765,0.765v2.296h-8.417c-0.458,0-0.765,0.307-0.765,0.765v3.061c0,0.459,0.306,0.765,0.765,0.765h27.547
	c0.457,0,0.764-0.306,0.764-0.765v-3.061C39.538,10.003,39.231,9.697,38.774,9.697z M21.174,8.167h7.653v1.53h-7.653V8.167z"/>
</svg>
