<?xml version="1.0" encoding="utf-8"?>
<!-- Generator: Adobe Illustrator 16.0.0, SVG Export Plug-In . SVG Version: 6.00 Build 0)  -->
<!DOCTYPE svg PUBLIC "-//W3C//DTD SVG 1.1//EN" "http://www.w3.org/Graphics/SVG/1.1/DTD/svg11.dtd">
<svg version="1.1" id="레이어_1" xmlns="http://www.w3.org/2000/svg" xmlns:xlink="http://www.w3.org/1999/xlink" x="0px"
	 y="0px" width="60px" height="60px" viewBox="0 0 60 60" enable-background="new 0 0 60 60" xml:space="preserve">
<path fill="#040000" d="M30.491,26.149c0.002,0.006,0.005,0.011,0.009,0.017c0.716,1.883,1.157,3.864,1.15,5.078
	c-0.011,0.563-0.165,0.978-0.458,1.246c-0.154-0.14-0.318-0.305-0.492-0.492l-0.01-0.01c-0.675-0.705-1.343-1.466-2.006-2.283
	c-0.768-0.984-2.019-1.774-3.752-2.369v-0.009c-1.972-0.669-3.624-0.2-4.955,1.41l-0.009,0.009
	c-0.822,0.982-0.952,1.996-0.389,3.044c0.383,0.808,1.289,1.626,2.716,2.455h-0.01c2.156,1.264,3.621,3.152,4.394,5.665
	c0.027,0.111,0.058,0.225,0.095,0.337c0.009,0.019,0.017,0.04,0.026,0.06c0.014,0.037,0.029,0.075,0.043,0.113
	c0.822,2.443,2.076,4.1,3.762,4.973c-0.396,1.699-0.074,3.264,0.968,4.695v0.009c1.112,1.738,4.062,2.32,8.847,1.747
	c4.967-0.596,7.434-2.305,7.402-5.129c0.053-1.73-0.086-2.996-0.416-3.796c0.272-0.313,0.534-0.642,0.787-0.986h-0.008
	c0.255-0.342,0.534-0.79,0.838-1.349c0.006-0.01,0.012-0.018,0.018-0.025c0.066-0.135,0.133-0.271,0.199-0.415
	c0.01-0.017,0.018-0.034,0.025-0.052c0.789-1.51,1.356-2.926,1.703-4.246c0.303-1.121,0.453-2.174,0.451-3.156
	c-0.002-1.518-0.151-2.849-0.451-3.995c-0.166-0.666-0.376-1.274-0.631-1.825l-0.01-0.008c-1.049-2.185-2.691-3.268-4.928-3.252
	c-0.17-0.003-0.352,0.02-0.545,0.069c-0.849-0.921-1.814-1.365-2.896-1.332c-0.349-0.018-0.824,0.104-1.428,0.363
	c-0.014,0.005-0.028,0.011-0.043,0.018c-0.249,0.096-0.459,0.19-0.631,0.285c-0.611-0.359-1.283-0.534-2.016-0.527
	c-0.3,0-0.609,0.041-0.925,0.121c-0.013,0.003-0.028,0.006-0.043,0.009c-0.101,0.023-0.207,0.061-0.32,0.113
	c-1.295-2.673-0.18-7.673-2.091-8.677c-1.218-0.653-2.232-0.938-3.044-0.856c-1.038,0.06-2.12,0.802-2.621,1.775
	c-0.002,0.006-0.006,0.011-0.008,0.017c-0.939,1.629,0.129,4.103,0.336,5.482 M30.631,15.938l0.009-0.017
	c0.133-0.261,0.335-0.407,0.606-0.433c0.502-0.005,1.943-0.053,2.298,0.571c0.05,0.222,0.241,0.204,0.409,1.373
	c0.299,2.082,0.793,5.775,1.183,7.198c0.008,0.021,0.016,0.041,0.026,0.06c0.003,0.006,0.006,0.012,0.009,0.018v0.009l0.018,0.034
	c0.407,1.009,0.848,2.407,1.322,4.194c0.074,0.277,0.236,0.487,0.484,0.632c0.248,0.143,0.51,0.178,0.787,0.104
	c0.276-0.075,0.486-0.235,0.631-0.484c0.145-0.249,0.179-0.511,0.104-0.787c-0.403-1.52-0.783-2.774-1.141-3.762
	c0.029-0.017,0.058-0.032,0.086-0.044c0.129-0.029,0.256-0.043,0.381-0.043c0.634,0.012,1.182,0.292,1.643,0.839
	c0.5,0.653,0.967,2.034,1.4,4.142c0.06,0.28,0.21,0.499,0.451,0.657c0.238,0.157,0.498,0.207,0.777,0.147
	c0.279-0.056,0.5-0.204,0.657-0.441c0.159-0.239,0.212-0.499,0.155-0.778c-0.439-2.128-0.932-3.645-1.479-4.549
	c0.214-0.089,0.385-0.141,0.511-0.155c0.684,0.041,1.289,0.453,1.815,1.236l0.009,0.008c0.468,0.71,0.976,2.028,1.522,3.952
	c0.078,0.275,0.243,0.482,0.492,0.623c0.251,0.138,0.514,0.167,0.788,0.086c0.274-0.079,0.482-0.243,0.622-0.494
	c0.139-0.25,0.168-0.513,0.086-0.787c-0.383-1.353-0.754-2.445-1.115-3.277c0.995,0.229,1.756,0.893,2.283,1.989l-0.01-0.008
	c0.207,0.438,0.376,0.922,0.511,1.453v0.009c0.255,0.998,0.382,2.157,0.381,3.477c-0.003,0.815-0.129,1.688-0.381,2.62
	c-0.317,1.201-0.836,2.489-1.557,3.865c-0.009,0.019-0.017,0.036-0.026,0.053c-0.063,0.138-0.126,0.27-0.189,0.397l0.018-0.026
	c-0.249,0.457-0.478,0.826-0.684,1.107h-0.009c-0.38,0.517-0.78,0.991-1.202,1.426l-0.025,0.026
	c-0.715,0.71-1.477,1.301-2.283,1.772l0.043-0.017c-0.173,0.093-0.346,0.185-0.52,0.276c-0.254,0.137-0.424,0.342-0.51,0.614
	c-0.083,0.272-0.057,0.535,0.078,0.787c0.137,0.255,0.341,0.425,0.614,0.51c0.272,0.083,0.534,0.058,0.787-0.077
	c0.173-0.094,0.346-0.186,0.519-0.277c0.014-0.006,0.027-0.012,0.043-0.018c0.578-0.338,1.139-0.727,1.678-1.167
	c0.034,0.478,0.037,1.173,0.01,2.084c-0.186,1.671-2.041,2.718-5.568,3.14c-3.707,0.441-6.015,0.135-6.927-0.918v0.01
	c-0.57-0.803-0.801-1.67-0.691-2.604c0.534,0.231,1.097,0.434,1.686,0.605l0.017,0.01c0.274,0.072,0.554,0.139,0.839,0.198
	c0.016,0.003,0.03,0.007,0.044,0.009c0.369,0.061,0.737,0.11,1.106,0.146c0.285,0.03,0.539-0.045,0.761-0.225
	c0.221-0.184,0.346-0.416,0.372-0.701c0.03-0.284-0.044-0.538-0.226-0.761c-0.182-0.22-0.416-0.345-0.699-0.371
	c-0.309-0.031-0.617-0.072-0.926-0.122c-0.014-0.004-0.029-0.006-0.043-0.009c-0.229-0.054-0.455-0.11-0.674-0.173l0.017,0.009
	c-0.589-0.169-1.145-0.371-1.669-0.605l-0.009-0.009c-0.216-0.094-0.424-0.193-0.622-0.303c-0.148-0.119-0.299-0.191-0.451-0.215
	c-1.481-0.593-2.571-1.925-3.268-3.995c-0.009-0.019-0.017-0.04-0.026-0.062c-0.014-0.036-0.029-0.074-0.043-0.111
	c-0.023-0.07-0.044-0.139-0.061-0.208c-0.005-0.025-0.011-0.052-0.017-0.077c-0.933-3.046-2.709-5.332-5.327-6.858h-0.009
	c-0.972-0.565-1.606-1.101-1.902-1.608c-0.117-0.263-0.071-0.52,0.138-0.769l0.009-0.01c0.719-0.874,1.612-1.127,2.68-0.76v-0.008
	c1.288,0.442,2.228,1.013,2.82,1.713c0.694,0.861,1.395,1.666,2.101,2.411l0.008,0.009c0.508,0.547,0.953,0.94,1.332,1.177
	c0.129,0.081,0.268,0.134,0.415,0.155c0.149,0.021,0.296,0.01,0.441-0.034c1.526-0.407,2.31-1.549,2.352-3.425
	c0.051-1.434-0.454-3.411-1.513-5.932c-0.017-0.032-0.033-0.063-0.053-0.096C31.704,24.417,31,21.688,30.5,19.188l0,0
	C30.347,18.183,30.267,16.789,30.631,15.938z"/>
<path fill="#040000" d="M18.03,11.382c0.25,0.144,0.512,0.178,0.787,0.104l2.361-0.64l-3.07,5.812
	c-0.135,0.253-0.161,0.516-0.078,0.787c0.086,0.273,0.256,0.478,0.51,0.614c0.253,0.135,0.515,0.162,0.788,0.078
	c0.273-0.085,0.478-0.255,0.614-0.51l2.948-5.586l0.752,2.793c0.075,0.276,0.236,0.487,0.484,0.631
	c0.249,0.144,0.511,0.178,0.787,0.104c0.277-0.075,0.487-0.236,0.631-0.485s0.178-0.511,0.104-0.787l-1.418-5.284
	c-0.005-0.022-0.011-0.045-0.017-0.069c-0.003-0.009-0.005-0.018-0.009-0.026c-0.013-0.045-0.027-0.088-0.043-0.13
	c-0.01-0.018-0.018-0.035-0.026-0.052l-0.052-0.086c-0.011-0.017-0.022-0.034-0.034-0.052c-0.036-0.044-0.077-0.088-0.121-0.129
	c-0.058-0.055-0.125-0.104-0.199-0.146c-0.011-0.007-0.023-0.013-0.034-0.017c-0.024-0.012-0.046-0.024-0.069-0.035
	c-0.039-0.018-0.08-0.032-0.122-0.044c-0.185-0.06-0.374-0.063-0.571-0.008l-4.67,1.262c-0.274,0.078-0.481,0.242-0.622,0.493
	c-0.144,0.249-0.179,0.512-0.104,0.787C17.616,11.034,17.78,11.241,18.03,11.382z"/>
<path fill="#040000" d="M17.606,29.032c0.144-0.25,0.179-0.513,0.104-0.788c-0.078-0.274-0.242-0.481-0.493-0.623
	c-0.25-0.143-0.512-0.177-0.787-0.103l-2.387,0.648l3.062-5.819c0.135-0.253,0.161-0.515,0.078-0.787
	c-0.085-0.274-0.255-0.479-0.51-0.613c-0.253-0.136-0.515-0.162-0.787-0.078c-0.274,0.086-0.479,0.256-0.614,0.511l-2.931,5.577
	l-0.752-2.784c-0.075-0.276-0.236-0.486-0.484-0.632c-0.248-0.144-0.511-0.178-0.788-0.104c-0.276,0.075-0.486,0.235-0.631,0.484
	c-0.144,0.249-0.178,0.511-0.104,0.788L11,29.991c0.005,0.021,0.01,0.045,0.018,0.069c0.002,0.01,0.005,0.018,0.008,0.026
	c0.012,0.045,0.027,0.088,0.043,0.13c0.009,0.018,0.018,0.036,0.026,0.052l0.052,0.087c0.011,0.016,0.023,0.034,0.035,0.052
	c0.036,0.045,0.077,0.088,0.122,0.13c0.059,0.054,0.125,0.104,0.199,0.146c0.011,0.006,0.022,0.012,0.034,0.018
	c0.016,0.009,0.031,0.017,0.043,0.026c0.221,0.103,0.449,0.127,0.683,0.069l4.722-1.271C17.258,29.446,17.466,29.282,17.606,29.032z
	"/>
</svg>
