<?xml version="1.0" encoding="utf-8"?>
<!-- Generator: Adobe Illustrator 16.0.0, SVG Export Plug-In . SVG Version: 6.00 Build 0)  -->
<!DOCTYPE svg PUBLIC "-//W3C//DTD SVG 1.1//EN" "http://www.w3.org/Graphics/SVG/1.1/DTD/svg11.dtd">
<svg version="1.1" id="레이어_1" xmlns="http://www.w3.org/2000/svg" xmlns:xlink="http://www.w3.org/1999/xlink" x="0px"
	 y="0px" width="60px" height="60px" viewBox="0 0 60 60" enable-background="new 0 0 60 60" xml:space="preserve">
<path fill="#040000" d="M18.977,28.62l-0.009,0.009c-0.822,0.982-0.951,1.996-0.389,3.043c0.383,0.809,1.289,1.627,2.715,2.456
	h-0.009c2.156,1.264,3.621,3.151,4.393,5.665c0.027,0.111,0.058,0.225,0.096,0.336c0.008,0.02,0.017,0.04,0.025,0.061
	c0.015,0.037,0.03,0.075,0.044,0.113c0.821,2.443,2.075,4.1,3.762,4.972c-0.397,1.7-0.074,3.265,0.968,4.696v0.008
	c1.113,1.739,4.063,2.321,8.846,1.748c4.968-0.596,7.436-2.305,7.403-5.129c0.054-1.73-0.085-2.996-0.415-3.796
	c0.271-0.313,0.534-0.642,0.787-0.986h-0.009c0.255-0.342,0.534-0.791,0.839-1.349c0.006-0.01,0.011-0.018,0.018-0.025
	c0.065-0.135,0.133-0.271,0.197-0.415c0.01-0.017,0.019-0.034,0.027-0.053c0.788-1.51,1.356-2.925,1.702-4.245
	c0.303-1.121,0.453-2.174,0.45-3.156c0-1.518-0.15-2.849-0.45-3.995c-0.165-0.666-0.376-1.274-0.631-1.825l-0.009-0.008
	c-1.05-2.185-2.691-3.268-4.929-3.252c-0.169-0.003-0.352,0.02-0.544,0.069c-0.85-0.921-1.814-1.365-2.897-1.332
	c-0.349-0.018-0.824,0.104-1.427,0.363c-0.016,0.005-0.029,0.011-0.044,0.018c-0.249,0.096-0.459,0.19-0.632,0.285
	c-0.611-0.359-1.282-0.535-2.014-0.527c-0.301,0-0.609,0.041-0.926,0.121c-0.013,0.003-0.027,0.006-0.043,0.009
	c-0.1,0.023-0.207,0.061-0.32,0.113c-1.295-2.673-2.898-4.513-4.809-5.518c-1.217-0.653-2.232-0.938-3.043-0.856
	c-1.038,0.059-1.808,0.575-2.309,1.548c-0.003,0.006-0.006,0.011-0.009,0.017c-0.939,1.629-0.492,3.371,1.34,5.223l0.009,0.009
	c1.269,1.29,2.122,2.299,2.56,3.027c0.002,0.006,0.005,0.011,0.009,0.017c0.906,2.152,1.356,3.835,1.349,5.05
	c-0.012,0.562-0.164,0.978-0.459,1.245c-0.153-0.14-0.318-0.304-0.492-0.492l-0.009-0.01c-0.674-0.704-1.343-1.466-2.006-2.282
	c-0.769-0.984-2.02-1.774-3.753-2.369V27.21C21.959,26.542,20.308,27.011,18.977,28.62z M26.076,30.886
	c0.694,0.862,1.395,1.667,2.101,2.412l0.009,0.009c0.508,0.547,0.953,0.94,1.332,1.177c0.128,0.081,0.267,0.134,0.415,0.155
	c0.149,0.021,0.296,0.01,0.441-0.034c1.526-0.407,2.31-1.549,2.353-3.425c0.05-1.434-0.455-3.411-1.514-5.932
	c-0.017-0.033-0.034-0.063-0.053-0.096c-0.457-0.852-1.44-2.046-2.948-3.58l-0.009-0.009c-1.016-1.023-1.342-1.959-0.977-2.811
	l0.009-0.017c0.133-0.261,0.335-0.406,0.605-0.433c0.503-0.004,1.144,0.203,1.92,0.623c1.767,0.986,3.225,2.848,4.375,5.587
	c0.009,0.02,0.018,0.041,0.027,0.06c0.002,0.006,0.005,0.012,0.008,0.018v0.009l0.018,0.034c0.408,1.01,0.849,2.408,1.322,4.194
	c0.075,0.277,0.236,0.487,0.484,0.631c0.248,0.144,0.511,0.178,0.787,0.104c0.277-0.075,0.486-0.235,0.631-0.484
	c0.145-0.249,0.179-0.51,0.104-0.787c-0.403-1.52-0.784-2.774-1.142-3.761c0.029-0.017,0.058-0.032,0.086-0.044
	c0.13-0.029,0.257-0.044,0.381-0.043c0.634,0.012,1.182,0.292,1.643,0.839c0.501,0.653,0.969,2.033,1.401,4.142
	c0.059,0.28,0.209,0.499,0.45,0.657c0.238,0.157,0.498,0.207,0.778,0.146c0.279-0.056,0.499-0.203,0.656-0.44
	c0.16-0.239,0.212-0.499,0.155-0.778c-0.438-2.128-0.932-3.645-1.478-4.549c0.213-0.088,0.384-0.141,0.511-0.155
	c0.683,0.041,1.289,0.453,1.814,1.236l0.01,0.009c0.468,0.71,0.975,2.028,1.521,3.952c0.078,0.275,0.243,0.482,0.493,0.623
	c0.251,0.138,0.513,0.167,0.787,0.086c0.275-0.078,0.482-0.243,0.622-0.493c0.139-0.25,0.168-0.513,0.088-0.787
	c-0.383-1.353-0.756-2.445-1.116-3.277c0.995,0.229,1.756,0.893,2.282,1.989l-0.009-0.009c0.206,0.438,0.376,0.923,0.511,1.453
	v0.008c0.254,0.999,0.381,2.157,0.381,3.477c-0.003,0.816-0.129,1.689-0.381,2.62c-0.318,1.201-0.837,2.489-1.557,3.866
	c-0.01,0.018-0.018,0.035-0.025,0.052c-0.064,0.138-0.127,0.271-0.191,0.397l0.018-0.025c-0.249,0.456-0.477,0.826-0.683,1.106
	h-0.009c-0.381,0.517-0.781,0.991-1.202,1.427l-0.026,0.025c-0.715,0.711-1.477,1.301-2.283,1.773l0.043-0.018
	c-0.172,0.093-0.346,0.184-0.519,0.277c-0.255,0.137-0.425,0.34-0.51,0.613c-0.083,0.273-0.058,0.535,0.078,0.787
	c0.136,0.255,0.341,0.425,0.613,0.51c0.272,0.083,0.534,0.058,0.787-0.077c0.173-0.093,0.346-0.185,0.519-0.277
	c0.014-0.005,0.028-0.011,0.043-0.017c0.578-0.339,1.138-0.727,1.679-1.168c0.033,0.479,0.036,1.174,0.009,2.084
	c-0.186,1.672-2.041,2.718-5.568,3.139c-3.706,0.442-6.016,0.137-6.928-0.916v0.008c-0.568-0.803-0.8-1.67-0.691-2.602
	c0.535,0.23,1.098,0.433,1.687,0.605l0.017,0.008c0.274,0.073,0.553,0.139,0.839,0.199c0.016,0.004,0.03,0.007,0.044,0.009
	c0.369,0.062,0.738,0.11,1.106,0.146c0.285,0.03,0.539-0.044,0.761-0.225c0.221-0.183,0.346-0.415,0.371-0.7
	c0.031-0.285-0.043-0.539-0.224-0.762c-0.183-0.22-0.417-0.344-0.7-0.371c-0.309-0.031-0.617-0.072-0.926-0.121
	c-0.014-0.004-0.029-0.007-0.043-0.01c-0.229-0.053-0.455-0.11-0.674-0.172l0.017,0.008c-0.589-0.17-1.145-0.371-1.669-0.605
	l-0.009-0.008c-0.216-0.094-0.423-0.194-0.623-0.303c-0.147-0.12-0.298-0.191-0.45-0.216c-1.481-0.593-2.571-1.925-3.268-3.995
	c-0.009-0.019-0.017-0.039-0.026-0.061c-0.014-0.037-0.029-0.074-0.043-0.112c-0.024-0.069-0.044-0.138-0.061-0.208
	c-0.005-0.025-0.011-0.051-0.017-0.078c-0.934-3.045-2.709-5.33-5.327-6.857h-0.009c-0.972-0.564-1.606-1.102-1.902-1.608
	c-0.116-0.263-0.07-0.52,0.138-0.769l0.01-0.01c0.719-0.874,1.612-1.127,2.68-0.761v-0.007
	C24.544,29.615,25.484,30.187,26.076,30.886z"/>
<path fill="#040000" d="M10.113,23.215c0.25,0.144,0.512,0.178,0.787,0.103l2.387-0.648l-3.062,5.82
	c-0.135,0.253-0.162,0.515-0.078,0.787c0.085,0.274,0.255,0.479,0.51,0.614c0.253,0.136,0.515,0.162,0.787,0.078
	c0.274-0.085,0.479-0.256,0.614-0.51l2.932-5.577l0.752,2.784c0.075,0.277,0.236,0.487,0.484,0.632
	c0.249,0.144,0.512,0.178,0.787,0.104c0.277-0.075,0.487-0.236,0.632-0.484c0.144-0.249,0.178-0.512,0.104-0.788l-1.418-5.284
	c-0.005-0.021-0.011-0.045-0.017-0.069c-0.002-0.009-0.005-0.018-0.008-0.026c-0.013-0.045-0.028-0.088-0.043-0.13
	c-0.009-0.018-0.018-0.034-0.026-0.051l-0.052-0.086c-0.011-0.016-0.022-0.034-0.034-0.052c-0.036-0.046-0.078-0.089-0.122-0.13
	c-0.058-0.055-0.125-0.104-0.199-0.146c-0.011-0.006-0.023-0.012-0.034-0.018c-0.023-0.012-0.046-0.024-0.069-0.034
	c-0.039-0.017-0.079-0.032-0.121-0.043c-0.184-0.06-0.375-0.063-0.571-0.009l-4.687,1.262c-0.274,0.078-0.481,0.242-0.623,0.494
	c-0.145,0.249-0.179,0.511-0.104,0.787C9.698,22.867,9.862,23.075,10.113,23.215z"/>
<path fill="#040000" d="M16.546,17.188c0.008,0.033,0.017,0.067,0.026,0.104c0.003,0.012,0.006,0.022,0.009,0.034
	c0.079,0.259,0.237,0.458,0.476,0.597c0.011,0.006,0.023,0.012,0.034,0.018c0.069,0.037,0.138,0.066,0.208,0.086
	c0.175,0.051,0.356,0.051,0.544,0c0.011-0.003,0.023-0.006,0.034-0.009l4.635-1.254c0.277-0.075,0.487-0.236,0.631-0.484
	c0.144-0.249,0.179-0.511,0.104-0.787c-0.075-0.277-0.236-0.487-0.484-0.631c-0.249-0.144-0.511-0.178-0.787-0.104l-2.369,0.64
	l3.07-5.812c0.135-0.253,0.161-0.515,0.078-0.787C22.67,8.525,22.5,8.32,22.245,8.185c-0.252-0.136-0.515-0.162-0.787-0.078
	c-0.274,0.086-0.478,0.256-0.614,0.511l-2.948,5.586l-0.752-2.793c-0.075-0.276-0.236-0.486-0.484-0.631
	c-0.249-0.144-0.511-0.179-0.788-0.104c-0.276,0.075-0.486,0.236-0.631,0.484c-0.144,0.249-0.178,0.511-0.104,0.787L16.546,17.188z"
	/>
</svg>
