<?xml version="1.0" encoding="utf-8"?>
<!-- Generator: Adobe Illustrator 16.0.0, SVG Export Plug-In . SVG Version: 6.00 Build 0)  -->
<!DOCTYPE svg PUBLIC "-//W3C//DTD SVG 1.1//EN" "http://www.w3.org/Graphics/SVG/1.1/DTD/svg11.dtd">
<svg version="1.1" id="레이어_1" xmlns="http://www.w3.org/2000/svg" xmlns:xlink="http://www.w3.org/1999/xlink" x="0px"
	 y="0px" width="50px" height="50px" viewBox="0 0 50 50" enable-background="new 0 0 50 50" xml:space="preserve">
<path fill="#040000" d="M13,12.689c-0.041-0.099,0.035-0.33,0.225-0.688c0.188-0.358,0.463-0.762,0.822-1.21
	c0.359-0.449,0.777-0.902,1.256-1.36c0.479-0.458,0.967-0.837,1.465-1.136c0.517-0.299,1.056-0.448,1.614-0.448
	c0.539,0,0.967,0.174,1.286,0.523c0.318,0.349,0.479,0.772,0.479,1.271c0,0.399-0.134,0.777-0.404,1.137
	c-0.269,0.358-0.643,0.677-1.122,0.957c-0.618,0.339-1.246,0.598-1.884,0.777c-0.638,0.179-1.226,0.299-1.764,0.359
	c-0.538,0.06-0.987,0.065-1.345,0.015C13.269,12.834,13.059,12.769,13,12.689z"/>
<path fill="#040000" d="M24.772,29.733c-0.678,0-1.236-0.1-1.675-0.298c-0.438-0.2-0.768-0.479-0.987-0.839
	c-0.219-0.358-0.343-0.781-0.374-1.271c-0.03-0.488,0.014-1.031,0.134-1.629l3.2-15.011c0.16-0.757,0.388-1.285,0.687-1.584
	c0.299-0.299,0.718-0.448,1.257-0.448h0.447c0.578,0,1.067,0.145,1.466,0.434s0.518,0.822,0.358,1.6l-3.229,15.131
	c-0.16,0.818-0.16,1.401,0,1.749c0.159,0.349,0.548,0.573,1.166,0.674c-0.08,0.318-0.204,0.572-0.374,0.763
	c-0.169,0.188-0.418,0.358-0.747,0.507C25.774,29.658,25.33,29.733,24.772,29.733z"/>
<path fill="#040000" d="M41.245,12.689c-0.06,0.08-0.26,0.14-0.599,0.18s-0.758,0.02-1.256-0.06
	c-0.498-0.079-1.042-0.219-1.629-0.419c-0.588-0.199-1.161-0.478-1.72-0.837c-0.896-0.578-1.345-1.275-1.345-2.093
	c0-0.518,0.175-0.952,0.522-1.3c0.349-0.349,0.782-0.524,1.302-0.524c0.577,0,1.115,0.19,1.614,0.568
	c0.458,0.319,0.892,0.713,1.301,1.181c0.408,0.469,0.758,0.933,1.047,1.391c0.289,0.459,0.502,0.868,0.642,1.226
	C41.266,12.36,41.306,12.59,41.245,12.689z"/>
<path fill="#040000" d="M37.411,33.627c0.132,0.623,0.118,1.269-0.047,1.937c-0.162,0.666-0.459,1.331-0.889,1.993
	c-0.686,1.084-1.684,2.041-2.995,2.871s-2.853,1.434-4.628,1.813c-2.241,0.479-4.512,0.514-6.81,0.107
	c-2.299-0.406-4.404-1.221-6.315-2.443c-1.092-0.726-2.021-1.547-2.788-2.465c-0.766-0.916-1.27-1.939-1.512-3.07
	c-0.132-0.624-0.09-1.143,0.128-1.556c0.217-0.413,0.608-0.68,1.173-0.801c0.391-0.084,0.757-0.06,1.101,0.071
	c0.344,0.13,0.522,0.225,0.535,0.284c0.266,0.858,0.646,1.619,1.144,2.276c0.497,0.659,1.185,1.283,2.064,1.869
	c0.757,0.49,1.569,0.883,2.437,1.177s1.758,0.502,2.671,0.623c0.912,0.121,1.823,0.161,2.73,0.12
	c0.909-0.041,1.792-0.153,2.65-0.336c1.169-0.25,2.198-0.638,3.084-1.163s1.606-1.214,2.158-2.065
	c0.406-0.678,0.67-1.447,0.791-2.31c0.012-0.042,0.125-0.139,0.337-0.284c0.214-0.147,0.457-0.251,0.729-0.309
	c0.506-0.108,0.975-0.021,1.403,0.266C36.991,32.52,37.274,32.982,37.411,33.627z"/>
<g>
	<path fill="#040000" d="M12.292,29.845c-1.126,0-2.125-0.177-2.995-0.533c-0.872-0.354-1.596-0.832-2.174-1.433
		c-0.579-0.602-1.019-1.303-1.319-2.105c-0.301-0.802-0.451-1.649-0.451-2.544c0-1.218,0.208-2.371,0.625-3.458
		c0.417-1.087,1.002-2.035,1.758-2.845c0.756-0.809,1.65-1.449,2.684-1.92c1.033-0.47,2.158-0.705,3.377-0.705
		c1.125,0,2.12,0.173,2.983,0.52s1.588,0.822,2.174,1.423c0.586,0.602,1.03,1.299,1.33,2.094c0.301,0.794,0.451,1.646,0.451,2.556
		c0,1.218-0.208,2.371-0.625,3.458c-0.417,1.087-1.002,2.036-1.758,2.845c-0.756,0.81-1.646,1.454-2.672,1.932
		C14.655,29.605,13.525,29.845,12.292,29.845z M12.5,26.86c0.632,0,1.237-0.142,1.816-0.428c0.578-0.285,1.087-0.683,1.526-1.191
		c0.439-0.508,0.794-1.114,1.064-1.815c0.27-0.702,0.405-1.469,0.405-2.301c0-0.54-0.081-1.041-0.243-1.504
		c-0.162-0.462-0.401-0.867-0.717-1.214c-0.316-0.347-0.706-0.62-1.168-0.821c-0.462-0.2-0.995-0.3-1.596-0.3
		c-0.633,0-1.238,0.143-1.816,0.428c-0.578,0.286-1.091,0.683-1.538,1.191s-0.802,1.114-1.064,1.816
		c-0.263,0.701-0.394,1.461-0.394,2.278c0,0.54,0.081,1.045,0.243,1.515c0.163,0.471,0.401,0.879,0.717,1.226
		c0.315,0.347,0.706,0.622,1.168,0.821C11.367,26.761,11.899,26.86,12.5,26.86z"/>
</g>
<g>
	<path fill="#040000" d="M35.861,29.845c-1.125,0-2.124-0.177-2.995-0.533c-0.871-0.354-1.596-0.832-2.175-1.433
		c-0.577-0.602-1.017-1.303-1.319-2.105c-0.3-0.801-0.45-1.649-0.45-2.544c0-1.218,0.209-2.371,0.625-3.458
		c0.416-1.087,1.002-2.035,1.759-2.845c0.755-0.809,1.648-1.449,2.683-1.92c1.032-0.47,2.159-0.705,3.376-0.705
		c1.127,0,2.121,0.173,2.984,0.52c0.864,0.347,1.589,0.822,2.174,1.423c0.587,0.602,1.03,1.299,1.33,2.094
		c0.302,0.794,0.452,1.646,0.452,2.556c0,1.218-0.209,2.371-0.625,3.458c-0.416,1.087-1.003,2.036-1.758,2.845
		s-1.646,1.454-2.672,1.932S37.096,29.845,35.861,29.845z M36.07,26.86c0.631,0,1.236-0.142,1.814-0.428
		c0.579-0.285,1.088-0.683,1.526-1.191c0.44-0.508,0.795-1.114,1.064-1.815c0.27-0.702,0.405-1.469,0.405-2.301
		c0-0.54-0.08-1.041-0.242-1.504c-0.163-0.462-0.401-0.867-0.718-1.214c-0.316-0.347-0.706-0.62-1.168-0.821
		c-0.463-0.2-0.995-0.3-1.596-0.3c-0.633,0-1.237,0.143-1.815,0.428c-0.579,0.286-1.092,0.683-1.539,1.191
		c-0.446,0.509-0.801,1.114-1.064,1.816c-0.262,0.701-0.393,1.461-0.393,2.278c0,0.54,0.08,1.045,0.243,1.515
		c0.162,0.471,0.4,0.879,0.717,1.226c0.315,0.347,0.705,0.622,1.167,0.821C34.937,26.761,35.469,26.86,36.07,26.86z"/>
</g>
</svg>
